<svg width="840" height="560" viewBox="0 0 840 560" fill="none" xmlns="http://www.w3.org/2000/svg">
<circle cx="140" cy="140" r="75" fill="#EEEEEE"/>
<path d="M411.562 128.803C415.368 121.927 425.253 121.927 429.06 128.803L442.404 152.906C446.094 159.572 441.274 167.75 433.655 167.75H406.966C399.348 167.75 394.528 159.572 398.218 152.906L411.562 128.803Z" fill="#EEEEEE"/>
<path d="M690.622 123.267C692.824 112.638 708.004 112.638 710.206 123.267L724.336 191.471C725.621 197.678 720.882 203.5 714.544 203.5H686.284C679.945 203.5 675.206 197.678 676.492 191.471L690.622 123.267Z" fill="#EEEEEE"/>
<path d="M430.203 455.14C428.521 466.524 412.101 466.524 410.418 455.14L391.694 328.462C390.802 322.423 395.482 317 401.587 317H439.035C445.14 317 449.82 322.423 448.928 328.462L430.203 455.14Z" fill="#EEEEEE"/>
<path d="M696.453 411.86C697.335 407.611 703.403 407.611 704.286 411.86L710.739 442.937C711.255 445.42 709.359 447.75 706.823 447.75H693.916C691.38 447.75 689.484 445.42 690 442.937L696.453 411.86Z" fill="#EEEEEE"/>
<path d="M150.215 484.246C148.418 495.471 132.264 495.471 130.467 484.246L101.855 305.581C100.882 299.505 105.575 294 111.729 294H168.953C175.107 294 179.8 299.505 178.827 305.581L150.215 484.246Z" fill="#EEEEEE"/>
</svg>
