<svg width="773" height="405" viewBox="0 0 773 405" fill="none" xmlns="http://www.w3.org/2000/svg">
<g clip-path="url(#clip0_21_6)">
<path d="M253.5 75C253.5 116.421 219.921 150 178.5 150C137.079 150 103.5 116.421 103.5 75C103.5 33.5786 137.079 -4.11101e-07 178.5 0C219.921 4.11101e-07 253.5 33.5786 253.5 75Z" fill="#EEEEEE"/>
<path d="M51.1626 30.0543C55.9528 16.4831 46.9158 3.76187e-06 32.524 2.60789e-06L18 1.4433e-06C8.05887 6.46188e-07 1.1794e-07 8.05888 2.63427e-07 18L1.9318e-06 132C2.07729e-06 141.941 8.05886 150 18 150L32.524 150C46.9158 150 55.9528 133.517 51.1626 119.946C46.2 105.886 43.5 90.7583 43.5 75C43.5 59.2417 46.2 44.114 51.1626 30.0543Z" fill="#4444EE"/>
<path d="M112.526 192.809C101.312 186.516 86.0159 190.802 82.0364 203.03L23.8549 381.812C20.0695 393.444 28.7392 405.382 40.9713 405.382H160.832C168.627 405.382 175.537 400.365 177.949 392.953L228.814 236.652C233.847 221.186 216.331 205.649 200.276 208.253C193.187 209.402 185.913 210 178.5 210C154.538 210 132.034 203.757 112.526 192.809Z" fill="#4444EE"/>
<path d="M305.837 119.946C301.047 133.517 310.084 150 324.476 150L755 150C764.941 150 773 141.941 773 132V18.0001C773 8.05893 764.941 4.80493e-05 755 4.80493e-05H324.476C310.084 4.80493e-05 301.047 16.4831 305.837 30.0544C310.8 44.1141 313.5 59.2417 313.5 75C313.5 90.7583 310.8 105.886 305.837 119.946Z" fill="#4444EE"/>
</g>
<defs>
<clipPath id="clip0_21_6">
<rect width="773" height="405" fill="white"/>
</clipPath>
</defs>
</svg>
