<svg width="1336" height="405" viewBox="0 0 1336 405" fill="none" xmlns="http://www.w3.org/2000/svg">
<g clip-path="url(#clip0_23_72)">
<path d="M502.5 75C502.5 116.421 468.921 150 427.5 150C386.079 150 352.5 116.421 352.5 75C352.5 33.5786 386.079 -4.11101e-07 427.5 0C468.921 4.11101e-07 502.5 33.5786 502.5 75Z" fill="#EEEEEE"/>
<path d="M300.163 30.0543C304.953 16.4831 295.916 8.05609e-06 281.524 1.01014e-05L32.5 4.54912e-05C22.5589 4.6904e-05 14.5 8.05892 14.5 18V186.815C14.5 198.566 25.5773 207.166 36.9618 204.253L246.804 150.562C248.262 150.189 249.761 150 251.266 150L281.524 150C295.916 150 304.953 133.517 300.163 119.946C295.2 105.886 292.5 90.7583 292.5 75C292.5 59.2417 295.2 44.114 300.163 30.0543Z" fill="#44EE44"/>
<path d="M361.526 192.809C350.312 186.516 335.016 190.802 331.036 203.03L272.855 381.812C269.07 393.444 277.739 405.382 289.971 405.382H409.832C417.627 405.382 424.537 400.365 426.949 392.953L477.814 236.652C482.847 221.186 465.331 205.649 449.276 208.253C442.187 209.402 434.913 210 427.5 210C403.538 210 381.034 203.757 361.526 192.809Z" fill="#44EE44"/>
<path d="M957.185 150C947.244 150 939.206 158.06 938.989 167.999C937.363 242.509 925.651 316.456 904.172 387.821C901.307 397.341 891.133 402.51 881.678 399.438L772.119 363.84C762.664 360.768 757.515 350.619 760.333 341.086C776.965 284.829 786.181 226.641 787.748 167.998C788.013 158.061 779.929 150 769.988 150H573.476C559.084 150 550.047 133.517 554.837 119.946C559.8 105.886 562.5 90.7583 562.5 75C562.5 59.2417 559.8 44.1141 554.837 30.0544C550.047 16.4831 559.084 4.68836e-05 573.476 4.60151e-05L1318 1.08623e-06C1327.94 4.86321e-07 1336 8.05888 1336 18V57.0001C1336 66.9412 1327.94 75 1318 75.0001L1314.31 75.0001C1306.4 75.0001 1299.42 80.1619 1297.1 87.7226L1281.9 137.278C1279.58 144.838 1272.6 150 1264.69 150H957.185Z" fill="#44EE44"/>
</g>
<defs>
<clipPath id="clip0_23_72">
<rect width="1336" height="405" fill="white"/>
</clipPath>
</defs>
</svg>
