<svg width="1087" height="405" viewBox="0 0 1087 405" fill="none" xmlns="http://www.w3.org/2000/svg">
<g clip-path="url(#clip0_23_60)">
<path d="M253.5 75C253.5 116.421 219.921 150 178.5 150C137.079 150 103.5 116.421 103.5 75C103.5 33.5786 137.079 -4.11101e-07 178.5 0C219.921 4.11101e-07 253.5 33.5786 253.5 75Z" fill="#EEEEEE"/>
<path d="M324.476 0.500007L1070 0.500164C1079.67 0.500166 1087.5 8.33519 1087.5 18.0002V136.75C1087.5 143.792 1081.79 149.5 1074.75 149.5C1067.14 149.5 1061.16 155.711 1059.85 163.1C1053.66 197.998 1023.18 224.5 986.5 224.5H593.5C558.46 224.5 529.069 200.309 521.119 167.716C518.726 157.906 510.738 149.5 500.5 149.5H324.476C317.489 149.5 311.78 145.502 308.393 139.807C305.003 134.106 303.967 126.747 306.309 120.112C311.29 106 314 90.8158 314 75C314 59.1842 311.29 44.0003 306.309 29.8879C303.967 23.2533 305.003 15.8937 308.393 10.1935C311.78 4.49782 317.489 0.500006 324.476 0.500007ZM24.3303 381.967L82.5119 203.185C86.373 191.32 101.281 187.071 112.281 193.245C131.862 204.234 154.45 210.5 178.5 210.5C185.94 210.5 193.241 209.9 200.356 208.746C208.204 207.474 216.445 210.636 222.108 216.038C227.769 221.438 230.779 228.998 228.339 236.498L177.473 392.798C175.128 400.004 168.411 404.882 160.832 404.882H40.9713C29.079 404.882 20.6501 393.275 24.3303 381.967Z" fill="#EE4444" stroke="black"/>
</g>
<defs>
<clipPath id="clip0_23_60">
<rect width="1087" height="405" fill="white"/>
</clipPath>
</defs>
</svg>
